<?xml version="1.0" encoding="UTF-8" standalone="no"?>
<!-- Created with Inkscape (http://www.inkscape.org/) -->

<svg
   width="40.175877mm"
   height="35.186943mm"
   viewBox="0 0 40.175875 35.186943"
   version="1.1"
   id="svg1"
   xml:space="preserve"
   inkscape:version="1.3.2 (091e20e, 2023-11-25, custom)"
   sodipodi:docname="Open-3D-Icon.svg"
   xmlns:inkscape="http://www.inkscape.org/namespaces/inkscape"
   xmlns:sodipodi="http://sodipodi.sourceforge.net/DTD/sodipodi-0.dtd"
   xmlns="http://www.w3.org/2000/svg"
   xmlns:svg="http://www.w3.org/2000/svg"><sodipodi:namedview
     id="namedview1"
     pagecolor="#505050"
     bordercolor="#eeeeee"
     borderopacity="1"
     inkscape:showpageshadow="0"
     inkscape:pageopacity="0"
     inkscape:pagecheckerboard="0"
     inkscape:deskcolor="#505050"
     inkscape:document-units="mm"
     inkscape:zoom="1.4324567"
     inkscape:cx="210.82662"
     inkscape:cy="115.53578"
     inkscape:window-width="1718"
     inkscape:window-height="1341"
     inkscape:window-x="-8"
     inkscape:window-y="0"
     inkscape:window-maximized="0"
     inkscape:current-layer="layer1" /><defs
     id="defs1" /><g
     inkscape:label="Layer 1"
     inkscape:groupmode="layer"
     id="layer1"
     transform="translate(-35.269121,-6.8307934)"><path
       style="fill:#000000"
       d="m 45.282218,41.90751 c -0.04727,-0.06062 -2.319558,-4.01248 -5.049524,-8.781903 l -4.963573,-8.671678 0.140638,-0.278539 c 0.07735,-0.153196 2.336848,-4.107733 5.021105,-8.787859 l 4.880468,-8.5093196 1.893412,-0.023709 1.893413,-0.023709 1.695478,2.8648992 c 0.932513,1.5756944 1.695478,2.8859084 1.695478,2.9115864 0,0.02568 -0.906883,0.04669 -2.015295,0.04669 h -2.015295 l -3.178189,5.356904 c -1.748004,2.946297 -3.265568,5.505706 -3.372364,5.687576 l -0.194175,0.330673 h 6.514199 6.514198 l 2.819493,-5.068325 c 1.550721,-2.787579 2.843474,-5.069223 2.872785,-5.07032 0.111486,-0.0042 6.35233,10.507673 6.307589,10.624267 -0.0469,0.12221 -5.98547,10.174931 -6.18724,10.473659 -0.0918,0.135916 -0.469487,-0.499276 -2.778869,-4.673512 -1.469945,-2.656944 -2.765313,-4.97961 -2.878595,-5.16148 l -0.205967,-0.330673 h -6.435997 c -4.351968,0 -6.435997,0.02938 -6.435997,0.09072 0,0.0499 1.493222,2.609305 3.31827,5.687577 l 3.318269,5.596858 h 2.01659 c 1.109124,0 2.01659,0.02224 2.01659,0.04943 0,0.02719 -0.759601,1.336653 -1.688002,2.909922 l -1.688001,2.86049 h -1.872471 c -1.39335,0 -1.894463,-0.0282 -1.958421,-0.110225 z m 5.305363,-0.132269 c 0.07212,-0.133372 0.83779,-1.432917 1.701491,-2.887878 l 1.570366,-2.645384 3.591808,-0.04409 3.591807,-0.04409 3.483168,-5.854849 3.483167,-5.854849 -0.305507,-0.538163 c -0.168029,-0.29599 -1.726187,-2.93885 -3.462572,-5.873022 l -3.157065,-5.334859 -3.614175,-0.02557 -3.614174,-0.02557 -1.454962,-2.476291 C 51.600705,8.8086614 50.833574,7.5007834 50.6962,7.264226 L 50.446427,6.8341217 h 7.484875 7.484875 l 5.014322,8.7518133 c 2.757878,4.813498 5.014402,8.793998 5.014499,8.845556 9.7e-5,0.05156 -2.254567,4.029555 -5.010363,8.839993 l -5.010538,8.746251 h -7.483821 -7.48382 z"
       id="path1"
       sodipodi:nodetypes="sscsscccssscsscccscsssscssscssscsssscccccssccccscccssscccs" /></g></svg>
